<svg width="24" height="25" viewBox="0 0 24 25" fill="none" xmlns="http://www.w3.org/2000/svg">
<path d="M8.9093 4.67863C7.68888 4.27182 7.07867 4.06842 6.59205 4.18507C6.14478 4.29229 5.7577 4.57128 5.51455 4.96169C5.25 5.38645 5.25 6.02967 5.25 7.31611V16.4453C5.25 17.5543 5.25 18.1088 5.49447 18.5567C5.57436 18.703 5.67224 18.8388 5.78584 18.9609C6.13345 19.3345 6.65949 19.5098 7.71158 19.8605L11.0039 20.958C11.4423 21.1041 11.6615 21.1772 11.8875 21.1917C11.9624 21.1965 12.0376 21.1965 12.1125 21.1917C12.3385 21.1772 12.5577 21.1041 12.9961 20.958L16.2884 19.8605C17.3405 19.5098 17.8665 19.3345 18.2142 18.9609C18.3278 18.8388 18.4256 18.703 18.5055 18.5567C18.75 18.1088 18.75 17.5543 18.75 16.4453V7.31611C18.75 6.02967 18.75 5.38645 18.4855 4.96169C18.2423 4.57128 17.8552 4.29229 17.4079 4.18507C16.9213 4.06842 16.3111 4.27182 15.0907 4.67863C14.1259 5.00023 13.6435 5.16103 13.2849 5.45666C12.9526 5.7305 12.6968 6.08549 12.542 6.48725C12.375 6.92098 12.375 7.42947 12.375 8.44646V19.625C12.375 19.8321 12.2071 20 12 20C11.7929 20 11.625 19.8321 11.625 19.625V8.44646C11.625 7.42947 11.625 6.92098 11.458 6.48725C11.3032 6.08549 11.0474 5.7305 10.7151 5.45666C10.3565 5.16103 9.8741 5.00023 8.9093 4.67863Z" fill="#F7483B"/>
<path d="M18 7.5L18.6308 7.28974C19.5843 6.9719 20.061 6.81298 20.4217 6.98067C20.5364 7.03403 20.64 7.10868 20.7269 7.20067C21 7.48974 21 7.99228 21 8.99737V18.7C21 19.4499 21 19.8249 20.809 20.0878C20.7473 20.1727 20.6727 20.2473 20.5878 20.309C20.3249 20.5 19.9499 20.5 19.2 20.5H4.8C4.05005 20.5 3.67508 20.5 3.41221 20.309C3.32732 20.2473 3.25266 20.1727 3.19098 20.0878C3 19.8249 3 19.4499 3 18.7V8.99737C3 7.99228 3 7.48974 3.27311 7.20067C3.36002 7.10868 3.4636 7.03403 3.57835 6.98067C3.93895 6.81298 4.4157 6.9719 5.36921 7.28974L6 7.5" stroke="#F7483B" stroke-width="1.5" stroke-linecap="round" stroke-linejoin="round"/>
</svg>
