<svg width="24" height="24" viewBox="0 0 24 24" fill="none" xmlns="http://www.w3.org/2000/svg">
<path d="M8.9093 4.17851C7.68888 3.7717 7.07867 3.5683 6.59205 3.68495C6.14478 3.79217 5.7577 4.07116 5.51455 4.46157C5.25 4.88633 5.25 5.52955 5.25 6.81598V15.9451C5.25 17.0541 5.25 17.6086 5.49447 18.0565C5.57436 18.2029 5.67224 18.3387 5.78584 18.4608C6.13345 18.8344 6.65949 19.0097 7.71158 19.3604L11.0039 20.4578C11.4423 20.604 11.6615 20.677 11.8875 20.6916C11.9624 20.6964 12.0376 20.6964 12.1125 20.6916C12.3385 20.677 12.5577 20.604 12.9961 20.4578L16.2884 19.3604C17.3405 19.0097 17.8665 18.8344 18.2142 18.4608C18.3278 18.3387 18.4256 18.2029 18.5055 18.0565C18.75 17.6086 18.75 17.0541 18.75 15.9451V6.81599C18.75 5.52955 18.75 4.88633 18.4855 4.46157C18.2423 4.07116 17.8552 3.79217 17.4079 3.68495C16.9213 3.5683 16.3111 3.7717 15.0907 4.17851C14.1259 4.50011 13.6435 4.66091 13.2849 4.95653C12.9526 5.23038 12.6968 5.58537 12.542 5.98713C12.375 6.42086 12.375 6.92935 12.375 7.94633V19.1249C12.375 19.332 12.2071 19.4999 12 19.4999C11.7929 19.4999 11.625 19.332 11.625 19.1249V7.94633C11.625 6.92935 11.625 6.42086 11.458 5.98713C11.3032 5.58537 11.0474 5.23038 10.7151 4.95653C10.3565 4.66091 9.8741 4.50011 8.9093 4.17851Z" fill="#F7483B"/>
<path d="M18 7L18.6308 6.78974C19.5843 6.4719 20.061 6.31298 20.4217 6.48067C20.5364 6.53403 20.64 6.60868 20.7269 6.70067C21 6.98974 21 7.49228 21 8.49737V18.2C21 18.9499 21 19.3249 20.809 19.5878C20.7473 19.6727 20.6727 19.7473 20.5878 19.809C20.3249 20 19.9499 20 19.2 20H4.8C4.05005 20 3.67508 20 3.41221 19.809C3.32732 19.7473 3.25266 19.6727 3.19098 19.5878C3 19.3249 3 18.9499 3 18.2V8.49737C3 7.49228 3 6.98974 3.27311 6.70067C3.36002 6.60868 3.4636 6.53403 3.57835 6.48067C3.93895 6.31298 4.4157 6.4719 5.36921 6.78974L6 7" stroke="#F7483B" stroke-width="1.5" stroke-linecap="round" stroke-linejoin="round"/>
</svg>
