<svg width="24" height="25" viewBox="0 0 24 25" fill="none" xmlns="http://www.w3.org/2000/svg">
<path d="M9.71428 22.25H14.2857C16.818 22.25 18.0842 22.25 19.0609 21.7796C20.0305 21.3127 20.8127 20.5305 21.2796 19.5609C21.75 18.5842 21.75 17.318 21.75 14.7857C21.75 14.5192 21.75 14.3859 21.7005 14.2831C21.6513 14.181 21.569 14.0987 21.4669 14.0495C21.3641 14 21.2308 14 20.9643 14H3.03571C2.76916 14 2.63588 14 2.53306 14.0495C2.431 14.0987 2.34866 14.181 2.29952 14.2831C2.25 14.3859 2.25 14.5192 2.25 14.7857C2.25 17.318 2.25 18.5842 2.7204 19.5609C3.18729 20.5305 3.96954 21.3127 4.93905 21.7796C5.91584 22.25 7.18199 22.25 9.71428 22.25Z" fill="#fff"/>
<path d="M8 7.5V7.5C8 5.29086 9.79086 3.5 12 3.5V3.5C14.2091 3.5 16 5.29086 16 7.5V7.5" stroke="#fff" stroke-width="1.5" stroke-linejoin="round"/>
<path fill-rule="evenodd" clip-rule="evenodd" d="M7.45238 6.75H16.5476C16.9677 6.75 17.1777 6.75 17.355 6.76328C19.6984 6.93889 21.5611 8.80165 21.7367 11.145C21.75 11.3223 21.75 11.5323 21.75 11.9524C21.75 11.9966 21.75 12.0187 21.7486 12.0374C21.7301 12.284 21.534 12.4801 21.2874 12.4986C21.2687 12.5 21.2466 12.5 21.2024 12.5H2.79762C2.7534 12.5 2.73129 12.5 2.71263 12.4986C2.46596 12.4801 2.26988 12.284 2.2514 12.0374C2.25 12.0187 2.25 11.9966 2.25 11.9524C2.25 11.5323 2.25 11.3223 2.26328 11.145C2.43889 8.80165 4.30165 6.93889 6.64503 6.76328C6.82227 6.75 7.03231 6.75 7.45238 6.75ZM10 9.12891C9.58579 9.12891 9.25 9.46469 9.25 9.87891C9.25 10.2931 9.58579 10.6289 10 10.6289H14C14.4142 10.6289 14.75 10.2931 14.75 9.87891C14.75 9.46469 14.4142 9.12891 14 9.12891H10Z" fill="#fff"/>
</svg>
