<svg width="24" height="25" viewBox="0 0 24 25" fill="none" xmlns="http://www.w3.org/2000/svg">
<path fill-rule="evenodd" clip-rule="evenodd" d="M12 22.25C17.3848 22.25 21.75 17.8848 21.75 12.5C21.75 7.11522 17.3848 2.75 12 2.75C6.61522 2.75 2.25 7.11522 2.25 12.5C2.25 17.8848 6.61522 22.25 12 22.25ZM13.5 12.5C13.5 13.3284 12.8284 14 12 14C11.1716 14 10.5 13.3284 10.5 12.5C10.5 11.6716 11.1716 11 12 11C12.8284 11 13.5 11.6716 13.5 12.5ZM7.75 12.5C7.75 10.1528 9.65279 8.25 12 8.25C14.3472 8.25 16.25 10.1528 16.25 12.5C16.25 14.8472 14.3472 16.75 12 16.75C9.65279 16.75 7.75 14.8472 7.75 12.5ZM12 6.75C8.82436 6.75 6.25 9.32436 6.25 12.5C6.25 15.6756 8.82436 18.25 12 18.25C15.1756 18.25 17.75 15.6756 17.75 12.5C17.75 9.32436 15.1756 6.75 12 6.75Z" fill="#EA9040"/>
</svg>
