<svg width="24" height="25" viewBox="0 0 24 25" fill="none" xmlns="http://www.w3.org/2000/svg">
<path d="M18 7.5V7.5C18 5.84315 16.6569 4.5 15 4.5H10.2C7.20021 4.5 5.70032 4.5 4.64886 5.26393C4.30928 5.51065 4.01065 5.80928 3.76393 6.14886C3 7.20032 3 8.70021 3 11.7V15.5M9.5 20.5H14.5C16.8346 20.5 18.0019 20.5 18.8856 20.0277C19.5833 19.6548 20.1548 19.0833 20.5277 18.3856C21 17.5019 21 16.3346 21 14V14C21 11.6654 21 10.4981 20.5277 9.61441C20.1548 8.9167 19.5833 8.34525 18.8856 7.97231C18.0019 7.5 16.8346 7.5 14.5 7.5H9.5C7.16537 7.5 5.99805 7.5 5.11441 7.97231C4.4167 8.34525 3.84525 8.9167 3.47231 9.61441C3 10.4981 3 11.6654 3 14V14C3 16.3346 3 17.5019 3.47231 18.3856C3.84525 19.0833 4.4167 19.6548 5.11441 20.0277C5.99805 20.5 7.16537 20.5 9.5 20.5Z" stroke="#fff" stroke-width="1.5" stroke-linecap="round" stroke-linejoin="round"/>
<path fill-rule="evenodd" clip-rule="evenodd" d="M9.5 6.75H14.5C16.8306 6.75 17.996 6.75 18.9081 7.15008C19.9995 7.62885 20.8712 8.50046 21.3499 9.59195C21.75 10.504 21.75 11.6694 21.75 14C21.75 16.3306 21.75 17.496 21.3499 18.4081C20.8712 19.4995 19.9995 20.3712 18.9081 20.8499C17.996 21.25 16.8306 21.25 14.5 21.25H9.5C7.16935 21.25 6.00403 21.25 5.09195 20.8499C4.00046 20.3712 3.12885 19.4995 2.65008 18.4081C2.25 17.496 2.25 16.3306 2.25 14C2.25 11.6694 2.25 10.504 2.65008 9.59195C3.12885 8.50046 4.00046 7.62885 5.09195 7.15008C6.00403 6.75 7.16935 6.75 9.5 6.75ZM15 10.25C14.5858 10.25 14.25 10.5858 14.25 11C14.25 11.4142 14.5858 11.75 15 11.75H17C17.4142 11.75 17.75 11.4142 17.75 11C17.75 10.5858 17.4142 10.25 17 10.25H15Z" fill="#fff"/>
</svg>
