<svg width="42" height="42" viewBox="0 0 42 42" fill="none" xmlns="http://www.w3.org/2000/svg">
<path d="M17.5032 30.6855H24.1173C24.167 30.6855 24.2167 30.6953 24.2637 30.7148C24.3106 30.7343 24.3521 30.7622 24.388 30.7984C24.4239 30.8346 24.4515 30.8764 24.4708 30.9238C24.4901 30.9712 24.4998 31.02 24.4998 31.0715V41.6112C24.4998 41.6628 24.4901 41.7116 24.4708 41.7589C24.4515 41.8063 24.4239 41.8481 24.388 41.8843C24.3521 41.9206 24.3106 41.9484 24.2637 41.9679C24.2167 41.9874 24.167 41.9972 24.1173 41.9972H17.5032C17.4521 41.9972 17.4038 41.9874 17.3568 41.9679C17.3099 41.9484 17.2685 41.9206 17.2326 41.8843C17.1967 41.8481 17.1691 41.8063 17.1497 41.7589C17.1304 41.7116 17.1207 41.6628 17.1207 41.6112V31.0715C17.1207 31.02 17.1304 30.9712 17.1497 30.9238C17.1691 30.8764 17.1967 30.8346 17.2326 30.7984C17.2685 30.7622 17.3099 30.7343 17.3568 30.7148C17.4038 30.6953 17.4521 30.6855 17.5032 30.6855Z" fill="#2E4259"/>
<path d="M17.5061 8.63916H24.1202C24.1699 8.63916 24.2196 8.64891 24.2665 8.66982C24.3135 8.68932 24.3549 8.71719 24.3908 8.75342C24.4267 8.78965 24.4543 8.83145 24.4737 8.87883C24.493 8.9262 24.5027 8.97497 24.5027 9.02653V29.1041C24.5027 29.1556 24.493 29.2058 24.4737 29.2532C24.4543 29.3005 24.4267 29.3423 24.3908 29.3786C24.3549 29.4148 24.3135 29.4427 24.2665 29.4622C24.2196 29.4817 24.1699 29.4914 24.1202 29.4914H17.5061C17.455 29.4914 17.4066 29.4817 17.3597 29.4622C17.3127 29.4427 17.2713 29.4148 17.2354 29.3786C17.1995 29.3423 17.1719 29.3005 17.1526 29.2532C17.1332 29.2058 17.1222 29.1556 17.1222 29.1041V9.02653C17.1222 8.97497 17.1332 8.9262 17.1526 8.87883C17.1719 8.83145 17.1995 8.78965 17.2354 8.75342C17.2713 8.71719 17.3127 8.68932 17.3597 8.66982C17.4066 8.64891 17.455 8.63916 17.5061 8.63916Z" fill="#F7483B"/>
<path d="M25.6831 9.04233C25.6831 8.82142 25.8621 8.64233 26.0829 8.64233H32.6624C32.8832 8.64233 33.0622 8.82142 33.0622 9.04233V22.8396C33.0622 23.0605 32.8832 23.2396 32.6624 23.2396H26.0829C25.8621 23.2396 25.6831 23.0605 25.6831 22.8396V9.04233Z" fill="#F7483B"/>
<path d="M26.0629 24.4333H32.677C32.7267 24.4333 32.7764 24.4431 32.8234 24.4626C32.8703 24.4821 32.9118 24.51 32.9477 24.5462C32.9836 24.5824 33.0112 24.6242 33.0305 24.6716C33.0498 24.719 33.0595 24.7678 33.0595 24.8193V41.6126C33.0595 41.6642 33.0498 41.713 33.0305 41.7603C33.0112 41.8077 32.9836 41.8495 32.9477 41.8857C32.9118 41.922 32.8703 41.9498 32.8234 41.9693C32.7764 41.9902 32.7267 42 32.677 42H26.0629C26.0118 42 25.9635 41.9902 25.9165 41.9693C25.8696 41.9498 25.8282 41.922 25.7923 41.8857C25.7564 41.8495 25.7287 41.8077 25.7094 41.7603C25.6901 41.713 25.6804 41.6642 25.6804 41.6126V24.8193C25.6804 24.7678 25.6901 24.719 25.7094 24.6716C25.7287 24.6242 25.7564 24.5824 25.7923 24.5462C25.8282 24.51 25.8696 24.4821 25.9165 24.4626C25.9635 24.4431 26.0118 24.4333 26.0629 24.4333Z" fill="#2E4259"/>
<path d="M41.2198 16.7867C41.4406 16.7867 41.6196 16.9658 41.6196 17.1867V41.5976C41.6196 41.8185 41.4406 41.9976 41.2198 41.9976H34.6403C34.4195 41.9976 34.2405 41.8185 34.2405 41.5976V17.1867C34.2405 16.9658 34.4195 16.7867 34.6403 16.7867H41.2198Z" fill="#2E4259"/>
<path d="M41.6068 0.387366V7.06177C41.6068 7.11333 41.5971 7.1621 41.5764 7.20947C41.5571 7.25685 41.5295 7.29865 41.4936 7.33488C41.4577 7.37111 41.4162 7.39898 41.3693 7.41848C41.3223 7.43799 41.274 7.44775 41.2229 7.44775H7.76434C7.71324 7.44775 7.66354 7.4575 7.61659 7.47701C7.56964 7.49652 7.52821 7.52438 7.49231 7.56061C7.45641 7.59684 7.4288 7.63864 7.40808 7.68602C7.38875 7.73479 7.37909 7.78356 7.37909 7.83511V41.6043C7.37909 41.6558 7.36942 41.7046 7.35009 41.752C7.33076 41.7993 7.30314 41.8411 7.26724 41.8774C7.23134 41.9136 7.18992 41.9415 7.14297 41.961C7.09602 41.9805 7.04769 41.9902 6.9966 41.9902H0.383867C0.332777 41.9902 0.284449 41.9805 0.237501 41.961C0.190553 41.9415 0.149128 41.9136 0.113227 41.8774C0.0773256 41.8411 0.0497095 41.7993 0.0289972 41.752C0.0096659 41.7046 0 41.6558 0 41.6043V0.387366C0 0.335811 0.0096659 0.287041 0.0289972 0.239666C0.0483288 0.19229 0.0773256 0.150488 0.113227 0.114259C0.149128 0.0780305 0.190553 0.0501627 0.237501 0.0306549C0.284449 0.0111471 0.332777 0 0.383867 0H41.2229C41.274 0 41.3237 0.0111471 41.3693 0.0306549C41.4162 0.0501627 41.4577 0.0780305 41.4949 0.114259C41.5308 0.150488 41.5585 0.19229 41.5778 0.239666C41.5971 0.287041 41.6068 0.335811 41.6068 0.387366Z" fill="#2E4259"/>
<path d="M8.94511 8.63916H15.5592C15.6103 8.63916 15.6586 8.64891 15.7056 8.66982C15.7525 8.68932 15.794 8.71719 15.8299 8.75342C15.8658 8.78965 15.8934 8.83145 15.9127 8.87883C15.932 8.9262 15.9417 8.97497 15.9417 9.02653V25.8282C15.9417 25.8797 15.932 25.9285 15.9127 25.9759C15.8934 26.0233 15.8658 26.0651 15.8299 26.1013C15.794 26.1375 15.7525 26.1654 15.7056 26.1849C15.6586 26.2044 15.6103 26.2142 15.5592 26.2142H8.94511C8.89402 26.2142 8.84569 26.2044 8.79874 26.1849C8.75179 26.1654 8.71037 26.1375 8.67447 26.1013C8.63857 26.0651 8.61095 26.0233 8.59162 25.9759C8.57229 25.9285 8.56262 25.8797 8.56262 25.8282V9.02653C8.56262 8.97497 8.57229 8.9262 8.59162 8.87883C8.61095 8.83145 8.63857 8.78965 8.67447 8.75342C8.71037 8.71719 8.75179 8.68932 8.79874 8.66982C8.84569 8.64891 8.89402 8.63916 8.94511 8.63916Z" fill="#F7483B"/>
<path d="M34.6266 8.63916H41.2407C41.2918 8.63916 41.3402 8.64891 41.3871 8.66982C41.4341 8.68932 41.4755 8.71719 41.5114 8.75342C41.5473 8.78965 41.5749 8.83145 41.5942 8.87883C41.6136 8.9262 41.6232 8.97497 41.6232 9.02653V15.2105C41.6232 15.262 41.6136 15.3108 41.5942 15.3582C41.5749 15.4055 41.5473 15.4473 41.5114 15.4836C41.4755 15.5198 41.4341 15.5477 41.3871 15.5672C41.3402 15.5867 41.2918 15.5964 41.2407 15.5964H34.6266C34.5755 15.5964 34.5272 15.5867 34.4803 15.5672C34.4333 15.5477 34.3919 15.5198 34.356 15.4836C34.3201 15.4473 34.2925 15.4055 34.2731 15.3582C34.2538 15.3108 34.2441 15.262 34.2441 15.2105V9.02653C34.2441 8.97497 34.2538 8.9262 34.2731 8.87883C34.2925 8.83145 34.3201 8.78965 34.356 8.75342C34.3919 8.71719 34.4333 8.68932 34.4803 8.66982C34.5272 8.64891 34.5755 8.63916 34.6266 8.63916Z" fill="#F7483B"/>
</svg>
