<svg width="18" height="18" viewBox="0 0 18 18" fill="none" xmlns="http://www.w3.org/2000/svg">
<path d="M5.875 10.667C5.875 10.3218 6.15482 10.042 6.5 10.042H11.5C11.8452 10.042 12.125 10.3218 12.125 10.667C12.125 11.0122 11.8452 11.292 11.5 11.292H6.5C6.15482 11.292 5.875 11.0122 5.875 10.667Z" fill="#5D5D5F"/>
<path fill-rule="evenodd" clip-rule="evenodd" d="M6.5 0.0419922C6.84518 0.0419922 7.125 0.321814 7.125 0.666992V1.7175C7.6827 1.70866 8.30236 1.70866 8.99079 1.70866H9.00921C9.69764 1.70866 10.3173 1.70866 10.875 1.7175V0.666992C10.875 0.321814 11.1548 0.0419922 11.5 0.0419922C11.8452 0.0419922 12.125 0.321814 12.125 0.666992V1.76164C13.3849 1.84063 14.3529 2.04478 15.1498 2.62379C15.5566 2.91933 15.9143 3.27707 16.2099 3.68385C16.8781 4.60357 17.047 5.75106 17.1005 7.31226C17.125 8.0266 17.125 8.85775 17.125 9.82448V9.84284C17.125 10.8096 17.125 11.6407 17.1005 12.3551C17.047 13.9163 16.8781 15.0637 16.2099 15.9835C15.9143 16.3903 15.5566 16.748 15.1498 17.0435C14.2301 17.7117 13.0826 17.8807 11.5214 17.9342C10.807 17.9587 9.9758 17.9587 9.00899 17.9587H8.96227C7.43184 17.9587 6.23217 17.9587 5.2804 17.8556C4.30912 17.7503 3.52213 17.5317 2.8502 17.0435C2.44341 16.748 2.08568 16.3903 1.79013 15.9835C1.30194 15.3115 1.08334 14.5245 0.978107 13.5533C0.874988 12.6015 0.874993 11.4018 0.875 9.87137L0.875 9.82443C0.875 8.85773 0.875 8.02659 0.899474 7.31226C0.952963 5.75105 1.12191 4.60357 1.79013 3.68385C2.08568 3.27707 2.44341 2.91933 2.8502 2.62379C3.64713 2.04478 4.61507 1.84063 5.875 1.76164V0.666992C5.875 0.321814 6.15482 0.0419922 6.5 0.0419922ZM5.875 3.0147C4.73996 3.09276 4.08481 3.27187 3.58493 3.63506C3.28426 3.85351 3.01985 4.11792 2.8014 4.41859C2.43821 4.91847 2.2591 5.57362 2.18104 6.70866H15.819C15.7409 5.57362 15.5618 4.91847 15.1986 4.41859C14.9802 4.11792 14.7157 3.85351 14.4151 3.63506C13.9152 3.27187 13.26 3.09276 12.125 3.0147V3.16699C12.125 3.51217 11.8452 3.79199 11.5 3.79199C11.1548 3.79199 10.875 3.51217 10.875 3.16699V2.96765C10.3253 2.9587 9.70631 2.95866 9 2.95866C8.29369 2.95866 7.67465 2.9587 7.125 2.96765V3.16699C7.125 3.51217 6.84518 3.79199 6.5 3.79199C6.15482 3.79199 5.875 3.51217 5.875 3.16699V3.0147ZM15.866 7.95866H2.13399C2.12504 8.50831 2.125 9.12735 2.125 9.83366C2.125 11.41 2.12586 12.542 2.22083 13.4186C2.31454 14.2835 2.49383 14.8254 2.8014 15.2487C3.01985 15.5494 3.28426 15.8138 3.58493 16.0323C4.00826 16.3398 4.55011 16.5191 5.41504 16.6128C6.29166 16.7078 7.42369 16.7087 9 16.7087C9.70696 16.7087 10.3265 16.7086 10.8765 16.6996C10.8802 16.3041 10.8925 16.0129 10.934 15.7507C11.2587 13.7004 12.8668 12.0924 14.9171 11.7677C15.1793 11.7261 15.4704 11.7138 15.866 11.7102C15.875 11.1601 15.875 10.5406 15.875 9.83366C15.875 9.12735 15.875 8.50831 15.866 7.95866ZM15.8188 12.961C15.4813 12.9649 15.2835 12.9752 15.1126 13.0023C13.5972 13.2423 12.4086 14.4308 12.1686 15.9463C12.1415 16.1171 12.1312 16.315 12.1273 16.6525C13.2609 16.5743 13.9155 16.3952 14.4151 16.0323C14.7157 15.8138 14.9802 15.5494 15.1986 15.2487C15.5615 14.7492 15.7407 14.0946 15.8188 12.961Z" fill="#5D5D5F"/>
<path d="M5.875 10.667C5.875 10.3218 6.15482 10.042 6.5 10.042H11.5C11.8452 10.042 12.125 10.3218 12.125 10.667C12.125 11.0122 11.8452 11.292 11.5 11.292H6.5C6.15482 11.292 5.875 11.0122 5.875 10.667Z" stroke="#5D5D5F"/>
<path fill-rule="evenodd" clip-rule="evenodd" d="M6.5 0.0419922C6.84518 0.0419922 7.125 0.321814 7.125 0.666992V1.7175C7.6827 1.70866 8.30236 1.70866 8.99079 1.70866H9.00921C9.69764 1.70866 10.3173 1.70866 10.875 1.7175V0.666992C10.875 0.321814 11.1548 0.0419922 11.5 0.0419922C11.8452 0.0419922 12.125 0.321814 12.125 0.666992V1.76164C13.3849 1.84063 14.3529 2.04478 15.1498 2.62379C15.5566 2.91933 15.9143 3.27707 16.2099 3.68385C16.8781 4.60357 17.047 5.75106 17.1005 7.31226C17.125 8.0266 17.125 8.85775 17.125 9.82448V9.84284C17.125 10.8096 17.125 11.6407 17.1005 12.3551C17.047 13.9163 16.8781 15.0637 16.2099 15.9835C15.9143 16.3903 15.5566 16.748 15.1498 17.0435C14.2301 17.7117 13.0826 17.8807 11.5214 17.9342C10.807 17.9587 9.9758 17.9587 9.00899 17.9587H8.96227C7.43184 17.9587 6.23217 17.9587 5.2804 17.8556C4.30912 17.7503 3.52213 17.5317 2.8502 17.0435C2.44341 16.748 2.08568 16.3903 1.79013 15.9835C1.30194 15.3115 1.08334 14.5245 0.978107 13.5533C0.874988 12.6015 0.874993 11.4018 0.875 9.87137L0.875 9.82443C0.875 8.85773 0.875 8.02659 0.899474 7.31226C0.952963 5.75105 1.12191 4.60357 1.79013 3.68385C2.08568 3.27707 2.44341 2.91933 2.8502 2.62379C3.64713 2.04478 4.61507 1.84063 5.875 1.76164V0.666992C5.875 0.321814 6.15482 0.0419922 6.5 0.0419922ZM5.875 3.0147C4.73996 3.09276 4.08481 3.27187 3.58493 3.63506C3.28426 3.85351 3.01985 4.11792 2.8014 4.41859C2.43821 4.91847 2.2591 5.57362 2.18104 6.70866H15.819C15.7409 5.57362 15.5618 4.91847 15.1986 4.41859C14.9802 4.11792 14.7157 3.85351 14.4151 3.63506C13.9152 3.27187 13.26 3.09276 12.125 3.0147V3.16699C12.125 3.51217 11.8452 3.79199 11.5 3.79199C11.1548 3.79199 10.875 3.51217 10.875 3.16699V2.96765C10.3253 2.9587 9.70631 2.95866 9 2.95866C8.29369 2.95866 7.67465 2.9587 7.125 2.96765V3.16699C7.125 3.51217 6.84518 3.79199 6.5 3.79199C6.15482 3.79199 5.875 3.51217 5.875 3.16699V3.0147ZM15.866 7.95866H2.13399C2.12504 8.50831 2.125 9.12735 2.125 9.83366C2.125 11.41 2.12586 12.542 2.22083 13.4186C2.31454 14.2835 2.49383 14.8254 2.8014 15.2487C3.01985 15.5494 3.28426 15.8138 3.58493 16.0323C4.00826 16.3398 4.55011 16.5191 5.41504 16.6128C6.29166 16.7078 7.42369 16.7087 9 16.7087C9.70696 16.7087 10.3265 16.7086 10.8765 16.6996C10.8802 16.3041 10.8925 16.0129 10.934 15.7507C11.2587 13.7004 12.8668 12.0924 14.9171 11.7677C15.1793 11.7261 15.4704 11.7138 15.866 11.7102C15.875 11.1601 15.875 10.5406 15.875 9.83366C15.875 9.12735 15.875 8.50831 15.866 7.95866ZM15.8188 12.961C15.4813 12.9649 15.2835 12.9752 15.1126 13.0023C13.5972 13.2423 12.4086 14.4308 12.1686 15.9463C12.1415 16.1171 12.1312 16.315 12.1273 16.6525C13.2609 16.5743 13.9155 16.3952 14.4151 16.0323C14.7157 15.8138 14.9802 15.5494 15.1986 15.2487C15.5615 14.7492 15.7407 14.0946 15.8188 12.961Z" stroke="#5D5D5F"/>
</svg>
