<svg width="20" height="22" viewBox="0 0 20 22" fill="none" xmlns="http://www.w3.org/2000/svg">
<path d="M11.4 4.5H8.6C7.10011 4.5 6.35016 4.5 5.82443 4.88197C5.65464 5.00533 5.50533 5.15464 5.38197 5.32443C5 5.85016 5 6.60011 5 8.1V8.38889C5 8.41468 5 8.42758 4.99905 8.43845C4.98847 8.55932 4.89265 8.65514 4.77179 8.66571C4.76092 8.66667 4.74802 8.66667 4.72222 8.66667C4.51586 8.66667 4.41268 8.66667 4.32569 8.67428C3.35879 8.75887 2.5922 9.52546 2.50761 10.4924C2.5 10.5793 2.5 10.6825 2.5 10.8889V17C2.5 17.4647 2.5 17.697 2.53843 17.8902C2.69624 18.6836 3.31644 19.3038 4.10982 19.4616C4.30302 19.5 4.53534 19.5 5 19.5H7.5C7.81154 19.5 7.96731 19.5 8.08333 19.433C8.15934 19.3891 8.22246 19.326 8.26635 19.25C8.33333 19.134 8.33333 18.9782 8.33333 18.6667V17C8.33333 16.0795 9.07952 15.3333 10 15.3333C10.9205 15.3333 11.6667 16.0795 11.6667 17V18.6667C11.6667 18.9782 11.6667 19.134 11.7337 19.25C11.7775 19.326 11.8407 19.3891 11.9167 19.433C12.0327 19.5 12.1885 19.5 12.5 19.5L15 19.5C15.4647 19.5 15.697 19.5 15.8902 19.4616C16.6836 19.3038 17.3038 18.6836 17.4616 17.8902C17.5 17.697 17.5 17.4647 17.5 17V10.8889C17.5 10.6825 17.5 10.5793 17.4924 10.4924C17.4078 9.52546 16.6412 8.75887 15.6743 8.67428C15.5873 8.66667 15.4841 8.66667 15.2778 8.66667C15.252 8.66667 15.2391 8.66667 15.2282 8.66571C15.1073 8.65514 15.0115 8.55932 15.001 8.43845C15 8.42758 15 8.41468 15 8.38889V8.1C15 6.60011 15 5.85016 14.618 5.32443C14.4947 5.15464 14.3454 5.00533 14.1756 4.88197C13.6498 4.5 12.8999 4.5 11.4 4.5Z" stroke="#F7483B" stroke-width="1.5" stroke-linecap="round" stroke-linejoin="round"/>
<path d="M9.16671 8.04167C9.16671 8.31307 9.16671 8.44877 9.132 8.55886C9.05841 8.79224 8.87561 8.97504 8.64224 9.04862C8.53214 9.08333 8.39644 9.08333 8.12504 9.08333C7.85364 9.08333 7.71794 9.08333 7.60784 9.04862C7.37447 8.97504 7.19167 8.79224 7.11809 8.55886C7.08337 8.44877 7.08337 8.31307 7.08337 8.04167C7.08337 7.77026 7.08337 7.63456 7.11809 7.52447C7.19167 7.2911 7.37447 7.10829 7.60784 7.03471C7.71794 7 7.85364 7 8.12504 7C8.39644 7 8.53214 7 8.64224 7.03471C8.87561 7.10829 9.05841 7.2911 9.132 7.52447C9.16671 7.63456 9.16671 7.77026 9.16671 8.04167Z" fill="#F7483B"/>
<path d="M12.9167 8.04167C12.9167 8.31307 12.9167 8.44877 12.882 8.55886C12.8084 8.79224 12.6256 8.97504 12.3922 9.04862C12.2821 9.08333 12.1464 9.08333 11.875 9.08333C11.6036 9.08333 11.4679 9.08333 11.3578 9.04862C11.1245 8.97504 10.9417 8.79224 10.8681 8.55886C10.8334 8.44877 10.8334 8.31307 10.8334 8.04167C10.8334 7.77026 10.8334 7.63456 10.8681 7.52447C10.9417 7.2911 11.1245 7.10829 11.3578 7.03471C11.4679 7 11.6036 7 11.875 7C12.1464 7 12.2821 7 12.3922 7.03471C12.6256 7.10829 12.8084 7.2911 12.882 7.52447C12.9167 7.63456 12.9167 7.77026 12.9167 8.04167Z" fill="#F7483B"/>
<path d="M7.29171 12C7.29171 12.2714 7.29171 12.4071 7.257 12.5172C7.18341 12.7506 7.00061 12.9334 6.76724 13.007C6.65714 13.0417 6.52144 13.0417 6.25004 13.0417C5.97864 13.0417 5.84294 13.0417 5.73284 13.007C5.49947 12.9334 5.31667 12.7506 5.24309 12.5172C5.20837 12.4071 5.20837 12.2714 5.20837 12C5.20837 11.7286 5.20837 11.5929 5.24309 11.4828C5.31667 11.2494 5.49947 11.0666 5.73284 10.993C5.84294 10.9583 5.97864 10.9583 6.25004 10.9583C6.52144 10.9583 6.65714 10.9583 6.76724 10.993C7.00061 11.0666 7.18341 11.2494 7.257 11.4828C7.29171 11.5929 7.29171 11.7286 7.29171 12Z" fill="#F7483B"/>
<path d="M11.0417 12C11.0417 12.2714 11.0417 12.4071 11.007 12.5172C10.9334 12.7506 10.7506 12.9334 10.5172 13.007C10.4071 13.0417 10.2714 13.0417 10 13.0417C9.72864 13.0417 9.59294 13.0417 9.48284 13.007C9.24947 12.9334 9.06667 12.7506 8.99309 12.5172C8.95837 12.4071 8.95837 12.2714 8.95837 12C8.95837 11.7286 8.95837 11.5929 8.99309 11.4828C9.06667 11.2494 9.24947 11.0666 9.48284 10.993C9.59294 10.9583 9.72864 10.9583 10 10.9583C10.2714 10.9583 10.4071 10.9583 10.5172 10.993C10.7506 11.0666 10.9334 11.2494 11.007 11.4828C11.0417 11.5929 11.0417 11.7286 11.0417 12Z" fill="#F7483B"/>
<path d="M14.7917 12C14.7917 12.2714 14.7917 12.4071 14.757 12.5172C14.6834 12.7506 14.5006 12.9334 14.2672 13.007C14.1571 13.0417 14.0214 13.0417 13.75 13.0417C13.4786 13.0417 13.3429 13.0417 13.2328 13.007C12.9995 12.9334 12.8167 12.7506 12.7431 12.5172C12.7084 12.4071 12.7084 12.2714 12.7084 12C12.7084 11.7286 12.7084 11.5929 12.7431 11.4828C12.8167 11.2494 12.9995 11.0666 13.2328 10.993C13.3429 10.9583 13.4786 10.9583 13.75 10.9583C14.0214 10.9583 14.1571 10.9583 14.2672 10.993C14.5006 11.0666 14.6834 11.2494 14.757 11.4828C14.7917 11.5929 14.7917 11.7286 14.7917 12Z" fill="#F7483B"/>
</svg>
