<svg width="63" height="51" viewBox="0 0 63 51" fill="none" xmlns="http://www.w3.org/2000/svg">
<path d="M4.99757 22.2128C21.6846 15.1667 32.812 10.5214 38.3794 8.27698C54.2759 1.86882 57.5791 0.755666 59.732 0.718897C60.2055 0.710822 61.2645 0.824551 61.9501 1.36391C62.5292 1.81932 62.6885 2.43454 62.7648 2.8663C62.8412 3.2981 62.9359 4.28172 62.8606 5.05026C61.9991 13.8226 58.2717 35.1107 56.3754 44.9357C55.5731 49.0932 53.9932 50.4869 52.4636 50.6234C49.1395 50.9199 46.6151 48.4943 43.3956 46.449C38.3578 43.2483 35.5116 41.2557 30.6213 38.1324C24.9698 34.5229 28.6334 32.539 31.8542 29.297C32.6972 28.4485 47.3434 15.5372 47.6267 14.366C47.662 14.2195 47.6951 13.6735 47.3602 13.3852C47.0257 13.0968 46.5318 13.1954 46.1753 13.2739C45.67 13.385 37.6216 18.5405 22.0304 28.741C19.746 30.261 17.6768 31.002 15.8229 30.9631C13.779 30.9203 9.84757 29.8431 6.92492 28.9225C3.34018 27.7929 0.491088 27.1959 0.739181 25.2779C0.8684 24.279 2.28786 23.2573 4.99757 22.2128Z" fill="white" fill-opacity="0.24"/>
</svg>
